#N canvas 360 72 1110 511 12;
#X declare -lib m5_soundfile;
#X obj 16 20 declare -lib m5_soundfile;
#X obj 162 338 bng 19 250 50 0 empty empty empty 0 -10 0 12 #fcfcfc #000000 #000000;
#X obj 110 365 dac~;
#X msg 68 83 play it once;
#X obj 104 242 r inR1;
#X obj 205 340 print file length;
#X msg 295 84 play in a loop;
#X msg 533 80 stop it now;
#X msg 533 104 \; inR1 stop;
#X msg 658 89 stop at end of file / loop;
#X msg 658 113 \; inR1 stop end;
#X msg 296 125 \; inR1 open t1.wav \; inR1 stop never \; inR1 start \;;
#X text 373 400 rightmost outlet: output length (after open) \; 2nd Rightmost outlet: bang on finish \; creation arg: number of channels;
#X msg 69 121 \; inR1 open t1.wav \; inR1 stop end \; inR1 start \;;
#X obj 108 268 m5_readsf~ 2;
#X connect 3 0 13 0;
#X connect 4 0 14 0;
#X connect 6 0 11 0;
#X connect 7 0 8 0;
#X connect 9 0 10 0;
#X connect 14 0 2 0;
#X connect 14 1 2 1;
#X connect 14 2 1 0;
#X connect 14 3 5 0;
