#N canvas 288 106 844 530 12;
#X declare -lib m5_soundfile;
#X obj 46 32 declare -lib m5_soundfile;
#X msg 580 190 1 0 100;
#X msg 669 192 1 1 50;
#X obj 610 147 t b b;
#X obj 611 107 bng 19 250 50 0 empty empty empty 0 -10 0 12 #fcfcfc #000000 #000000;
#X floatatom 625 272 5 0 0 0 - - - 0;
#X text 592 310 output 1 if left > right \; output 0 if left == right \; output -1 if left < right \;;
#X text 642 105 Time code compare;
#X msg 338 257 1 0 8.3886e+06;
#X obj 334 205 bng 19 250 50 0 empty empty empty 0 -10 0 12 #fcfcfc #000000 #000000;
#X obj 334 229 t b b;
#X msg 442 258 1 0 9.4991e+06;
#X text 361 382 add Left to Right \; (bang: output last result);
#X msg 453 222 -1 0 8.3886e+06;
#X obj 232 318 f 2;
#X obj 128 263 t b b;
#X msg 149 318 1 0 48000;
#X obj 130 228 bng 19 250 50 0 empty empty empty 0 -10 0 12 #fcfcfc #000000 #000000;
#X text 163 422 multiply by scalar (right) \; bang: output last result);
#X text 42 68 Frame Time Code Math;
#X text 41 86 An 'FTC' value is a 3-value list: First: 'sign' (+1 or -1) Second: 'epoch' (of 1.67772e+07 frames) Third: 'remainder' (frames);
#X obj 183 191 expr 60*60*24+1;
#X obj 179 152 bng 19 250 50 0 empty empty empty 0 -10 0 12 #fcfcfc #000000 #000000;
#X msg 145 193 2;
#X obj 140 155 bng 19 250 50 0 empty empty empty 0 -10 0 12 #fcfcfc #000000 #000000;
#X obj 174 366 m5_ftc_mult;
#X obj 347 300 m5_ftc_add, f 11;
#X obj 625 248 m5_ftc_compare;
#X obj 177 393 print mult-out;
#X obj 343 337 print add-out;
#X connect 1 0 27 0;
#X connect 2 0 27 1;
#X connect 3 0 1 0;
#X connect 3 1 2 0;
#X connect 4 0 3 0;
#X connect 8 0 26 0;
#X connect 9 0 10 0;
#X connect 10 0 8 0;
#X connect 10 1 11 0;
#X connect 11 0 26 1;
#X connect 13 0 26 1;
#X connect 14 0 25 1;
#X connect 15 0 16 0;
#X connect 15 1 14 0;
#X connect 16 0 25 0;
#X connect 17 0 15 0;
#X connect 21 0 14 1;
#X connect 22 0 21 0;
#X connect 23 0 14 1;
#X connect 24 0 23 0;
#X connect 25 0 28 0;
#X connect 26 0 29 0;
#X connect 27 0 5 0;
