#N canvas 312 323 921 485 12;
#X declare -lib m5_soundfile;
#X obj 21 14 declare -lib m5_soundfile;
#X obj 93 181 bng 19 250 50 0 empty empty empty 0 -10 0 12 #fcfcfc #000000 #000000;
#X msg 140 181 mark;
#X msg 558 37 -1;
#X msg 595 38 1;
#X text 457 306 right input: set loop length (ftc) \; left (bang): start time for next loop \; left (int x): start time for loop +/- x loop lengths \; Creation arg: reference name for time anchor;
#X text 29 308 mark: set new start point immediately \; bang: send current time to outlet \; Creation Arg: define reference name for time anchor;
#X obj 136 225 m5_ftc_anchor ftcClockTimeID;
#X obj 524 166 m5_ftc_cycles ftcClockTimeID;
#X obj 133 252 print ftc anchor current time;
#X obj 522 213 print ftc cycles;
#X obj 510 40 bng 19 250 50 0 empty empty empty 0 -10 0 12 #fcfcfc #000000 #000000;
#X msg 626 37 8;
#X msg 668 112 1 0 96000;
#X msg 754 113 1 0 36000;
#X obj 685 19 loadbang;
#X msg 755 145 1 1 0;
#X msg 449 80 0 1 0 0;
#X msg 453 115 1 1 0 0;
#X msg 402 157 -2 1 0 3600;
#X connect 1 0 7 0;
#X connect 2 0 7 0;
#X connect 3 0 8 0;
#X connect 4 0 8 0;
#X connect 7 0 9 0;
#X connect 8 0 10 0;
#X connect 11 0 8 0;
#X connect 12 0 8 0;
#X connect 13 0 8 1;
#X connect 14 0 8 1;
#X connect 15 0 13 0;
#X connect 16 0 8 1;
#X connect 17 0 8 0;
#X connect 18 0 8 0;
#X connect 19 0 8 0;
