#N canvas 380 106 1005 570 12;
#X declare -lib m5_soundfile;
#X obj 53 377 dac~;
#X obj 44 19 declare -lib m5_soundfile;
#X text 485 131 set custom loop length (ftc);
#X text 435 250 if loop length is longer than sample \, silence is inserted, f 41;
#X obj 53 221 r inR1;
#X msg 420 386 \; inR1 stop end \;;
#X msg 739 35 \; inR1 open short-mono.wav \; inR1 stop never \; inR1 looplength self \; inR1 loopstart 1 0 0 \; inR1 start;
#X msg 740 131 \; inR1 open short-mono.wav \; inR1 stop never \; inR1 looplength 1 0 24000 \; inR1 loopstart 1 0 0 \; inR1 start;
#X msg 742 253 \; inR1 open short-mono.wav \; inR1 stop never \; inR1 looplength 1 0 164464 \; inR1 loopstart 1 0 0 \; inR1 start \;;
#X msg 741 378 \; inR1 open short-mono.wav \; inR1 stop never \; inR1 looplength 1 0 12000 \; inR1 loopstart 1 0 70000 \; inR1 start \;;
#X obj 54 271 m5_readsf~ 1, f 35;
#X obj 173 314 bng 19 250 50 0 empty empty empty 0 -10 0 12 #fcfcfc #000000 #000000;
#X obj 210 315 print file length;
#X text 416 329 stop at end of loop;
#X obj 420 355 bng 19 250 50 0 empty empty empty 0 -10 0 12 #fcfcfc #000000 #000000;
#X text 610 436 custom loop start;
#X text 289 35 looplength 'self' sets loop length to number of frames in the file;
#X obj 701 37 bng 19 250 50 0 empty empty empty 0 -10 0 12 #fcfcfc #000000 #000000;
#X obj 699 131 bng 19 250 50 0 empty empty empty 0 -10 0 12 #fcfcfc #000000 #000000;
#X obj 705 288 bng 19 250 50 0 empty empty empty 0 -10 0 12 #fcfcfc #000000 #000000;
#X obj 708 383 bng 19 250 50 0 empty empty empty 0 -10 0 12 #fcfcfc #000000 #000000;
#X connect 4 0 10 0;
#X connect 10 0 0 0;
#X connect 10 0 0 1;
#X connect 10 1 11 0;
#X connect 10 2 12 0;
#X connect 14 0 5 0;
#X connect 17 0 6 0;
#X connect 18 0 7 0;
#X connect 19 0 8 0;
#X connect 20 0 9 0;
