#N canvas 234 251 1210 571 12;
#X declare -lib m5_soundfile;
#X obj 15 11 declare -lib m5_soundfile;
#X obj 23 50 m5_ftc_anchor syncID;
#X obj 262 246 m5_readsf~ 1;
#X obj 432 248 m5_readsf~ 1;
#X obj 262 217 r inR1;
#X obj 434 219 r inR2;
#X obj 259 276 dac~;
#X obj 436 288 dac~;
#X obj 302 284 bng 19 250 50 0 empty empty empty 0 -10 0 12 #fcfcfc #000000 #000000;
#X obj 478 287 bng 19 250 50 0 empty empty empty 0 -10 0 12 #fcfcfc #000000 #000000;
#X obj 275 330 print file 1 length;
#X obj 464 333 print file 2 length;
#X obj 297 360 s fileLength;
#X msg 283 45 \; inR1 open t1.wav \; inR1 stop never \; inR1 looplength self \;;
#X obj 63 101 loadbang;
#X msg 63 125 \; inR1 time syncID \; inR2 time syncID \;;
#X obj 253 484 m5_ftc_cycles syncID;
#X obj 256 422 r fileLength;
#X obj 255 452 t b a, f 16;
#X msg 250 508 \; inR1 start \$1 \$2 \$3;
#X obj 690 104 r fileLength;
#X obj 672 132 list;
#X msg 671 283 \; inR1 stop end \;;
#X msg 666 323 \; inR2 stop end \;;
#X msg 576 34 \; inR2 open short-mono.wav \; inR2 stop never \;;
#X obj 488 12 bng 19 250 50 0 empty empty empty 0 -10 0 12 #fcfcfc #000000 #000000;
#X obj 542 164 m5_ftc_cycles syncID;
#X obj 494 53 t b b b;
#X msg 768 224 \; inR2 looplength \$1 \$2 \$3 \;;
#X obj 279 11 bng 19 250 50 0 empty empty empty 0 -10 0 12 #fcfcfc #000000 #000000;
#X text 307 12 start t1 (first);
#X text 533 15 start t2 (after);
#X text 779 84 get file length of t1 and use to set start times and loop length, f 27;
#X text 416 504 start at sync'd time after getting file length;
#X text 804 309 stop either track at end of current loop;
#X msg 537 201 \; inR2 loopstart 1 0 5000 \; inR2 start \$1 \$2 \$3 \;;
#X obj 766 198 m5_ftc_mult;
#X floatatom 858 179 5 0.1 10 0 - - - 0;
#X msg 858 146 1;
#X obj 889 119 loadbang;
#X msg 904 149 2;
#X msg 995 150 0.5;
#X text 899 174 try different loop_length multiplers \; hit start t2 to activate;
#X msg 946 149 1.125;
#X msg 1040 152 0.125;
#X text 51 243 syncs two files \; Start t1 first \, which will load the length of the sound file and quantize / loop both tracks to that length \; Then try starting /stoping either track and both should stay in sync \;, f 24;
#X connect 2 0 6 0;
#X connect 2 0 6 1;
#X connect 2 1 8 0;
#X connect 2 2 10 0;
#X connect 2 2 12 0;
#X connect 3 0 7 0;
#X connect 3 0 7 1;
#X connect 3 1 9 0;
#X connect 3 2 11 0;
#X connect 4 0 2 0;
#X connect 5 0 3 0;
#X connect 14 0 15 0;
#X connect 16 0 19 0;
#X connect 17 0 18 0;
#X connect 18 0 16 0;
#X connect 18 1 16 1;
#X connect 20 0 21 1;
#X connect 21 0 26 1;
#X connect 21 0 36 0;
#X connect 25 0 27 0;
#X connect 26 0 35 0;
#X connect 27 0 26 0;
#X connect 27 1 21 0;
#X connect 27 2 24 0;
#X connect 29 0 13 0;
#X connect 36 0 28 0;
#X connect 37 0 36 1;
#X connect 38 0 37 0;
#X connect 39 0 38 0;
#X connect 40 0 37 0;
#X connect 41 0 37 0;
#X connect 43 0 37 0;
#X connect 44 0 37 0;
